<svg width="208" height="40" viewBox="0 0 208 40" fill="none" xmlns="http://www.w3.org/2000/svg">
<path d="M20.4648 20.5898C20.4648 23.8711 19.7227 26.4948 18.2383 28.4609C16.7669 30.4141 14.7747 31.3906 12.2617 31.3906C10.3216 31.3906 8.72656 30.681 7.47656 29.2617V39.125H0.894531V9.86719H7.04688L7.24219 11.8203C8.50521 10.2578 10.1654 9.47656 12.2227 9.47656C14.8268 9.47656 16.8516 10.4401 18.2969 12.3672C19.7422 14.2812 20.4648 16.918 20.4648 20.2773V20.5898ZM13.8828 20.1797C13.8828 16.4297 12.7891 14.5547 10.6016 14.5547C9.03906 14.5547 7.9974 15.1146 7.47656 16.2344V24.5547C8.04948 25.7266 9.10417 26.3125 10.6406 26.3125C12.737 26.3125 13.8177 24.5026 13.8828 20.8828V20.1797ZM22.5547 20.2383C22.5547 18.1289 22.9648 16.2539 23.7852 14.6133C24.6055 12.9596 25.7839 11.6901 27.3203 10.8047C28.8568 9.91927 30.6602 9.47656 32.7305 9.47656C35.8945 9.47656 38.388 10.4596 40.2109 12.4258C42.0339 14.3789 42.9453 17.0417 42.9453 20.4141V20.6484C42.9453 23.9427 42.0273 26.5599 40.1914 28.5C38.3685 30.4271 35.8945 31.3906 32.7695 31.3906C29.7617 31.3906 27.3464 30.4922 25.5234 28.6953C23.7005 26.8854 22.7174 24.4375 22.5742 21.3516L22.5547 20.2383ZM29.1367 20.6484C29.1367 22.6016 29.4427 24.0339 30.0547 24.9453C30.6667 25.8568 31.5716 26.3125 32.7695 26.3125C35.1133 26.3125 36.3112 24.5091 36.3633 20.9023V20.2383C36.3633 16.4492 35.1523 14.5547 32.7305 14.5547C30.5299 14.5547 29.3385 16.1888 29.1562 19.457L29.1367 20.6484ZM54.332 23.1289L52.4766 24.9844V31H45.8945V0.980469H52.4766V16.918L53.1406 16.0391L58.1016 9.86719H65.9922L58.5898 18.5586L66.4805 31H58.9414L54.332 23.1289ZM77.5547 31.3906C74.3125 31.3906 71.6888 30.4271 69.6836 28.5C67.6784 26.5599 66.6758 24.0404 66.6758 20.9414V20.3945C66.6758 18.2331 67.0729 16.3255 67.8672 14.6719C68.6745 13.0182 69.8464 11.7422 71.3828 10.8438C72.9193 9.93229 74.7422 9.47656 76.8516 9.47656C79.8203 9.47656 82.1641 10.401 83.8828 12.25C85.6016 14.0859 86.4609 16.651 86.4609 19.9453V22.5039H73.375C73.6094 23.6888 74.1237 24.6198 74.918 25.2969C75.7122 25.974 76.7409 26.3125 78.0039 26.3125C80.0872 26.3125 81.7148 25.5833 82.8867 24.125L85.8945 27.6797C85.0742 28.8125 83.9089 29.7174 82.3984 30.3945C80.901 31.0586 79.2865 31.3906 77.5547 31.3906ZM76.8125 14.5547C74.8854 14.5547 73.7396 15.8307 73.375 18.3828H80.0156V17.875C80.0417 16.8203 79.7747 16.0065 79.2148 15.4336C78.6549 14.8477 77.8542 14.5547 76.8125 14.5547ZM100.191 25.0625C100.191 24.5026 99.8984 24.0534 99.3125 23.7148C98.7266 23.3763 97.6133 23.0247 95.9727 22.6602C94.332 22.2956 92.9779 21.8203 91.9102 21.2344C90.8424 20.6354 90.0286 19.9128 89.4688 19.0664C88.9089 18.2201 88.6289 17.25 88.6289 16.1562C88.6289 14.2161 89.4297 12.6211 91.0312 11.3711C92.6328 10.1081 94.7292 9.47656 97.3203 9.47656C100.107 9.47656 102.346 10.1081 104.039 11.3711C105.732 12.6341 106.578 14.2943 106.578 16.3516H99.9766C99.9766 14.6589 99.0846 13.8125 97.3008 13.8125C96.6107 13.8125 96.0312 14.0078 95.5625 14.3984C95.0938 14.776 94.8594 15.2513 94.8594 15.8242C94.8594 16.4102 95.1458 16.8854 95.7188 17.25C96.2917 17.6146 97.2031 17.9141 98.4531 18.1484C99.7161 18.3828 100.823 18.6628 101.773 18.9883C104.951 20.082 106.539 22.0417 106.539 24.8672C106.539 26.7943 105.68 28.3633 103.961 29.5742C102.255 30.7852 100.042 31.3906 97.3203 31.3906C95.5104 31.3906 93.8958 31.0651 92.4766 30.4141C91.0573 29.763 89.9505 28.8776 89.1562 27.7578C88.362 26.638 87.9648 25.4596 87.9648 24.2227H94.1172C94.1432 25.1992 94.4688 25.9154 95.0938 26.3711C95.7188 26.8138 96.5195 27.0352 97.4961 27.0352C98.3945 27.0352 99.0651 26.8529 99.5078 26.4883C99.9635 26.1237 100.191 25.6484 100.191 25.0625ZM119.859 31.3906C116.617 31.3906 113.993 30.4271 111.988 28.5C109.983 26.5599 108.98 24.0404 108.98 20.9414V20.3945C108.98 18.2331 109.378 16.3255 110.172 14.6719C110.979 13.0182 112.151 11.7422 113.688 10.8438C115.224 9.93229 117.047 9.47656 119.156 9.47656C122.125 9.47656 124.469 10.401 126.188 12.25C127.906 14.0859 128.766 16.651 128.766 19.9453V22.5039H115.68C115.914 23.6888 116.428 24.6198 117.223 25.2969C118.017 25.974 119.046 26.3125 120.309 26.3125C122.392 26.3125 124.02 25.5833 125.191 24.125L128.199 27.6797C127.379 28.8125 126.214 29.7174 124.703 30.3945C123.206 31.0586 121.591 31.3906 119.859 31.3906ZM119.117 14.5547C117.19 14.5547 116.044 15.8307 115.68 18.3828H122.32V17.875C122.346 16.8203 122.079 16.0065 121.52 15.4336C120.96 14.8477 120.159 14.5547 119.117 14.5547ZM143.336 31C143.102 30.5703 142.893 29.9388 142.711 29.1055C141.5 30.6289 139.807 31.3906 137.633 31.3906C135.641 31.3906 133.948 30.7917 132.555 29.5938C131.161 28.3828 130.465 26.8659 130.465 25.043C130.465 22.7513 131.311 21.0195 133.004 19.8477C134.697 18.6758 137.158 18.0898 140.387 18.0898H142.418V16.9766C142.418 15.0365 141.578 14.0664 139.898 14.0664C138.336 14.0664 137.555 14.8346 137.555 16.3711H130.973C130.973 14.3268 131.839 12.6667 133.57 11.3906C135.315 10.1146 137.535 9.47656 140.23 9.47656C142.926 9.47656 145.055 10.1341 146.617 11.4492C148.18 12.7643 148.98 14.5677 149.02 16.8594V26.2148C149.046 28.1549 149.345 29.6393 149.918 30.668V31H143.336ZM139.215 26.7031C140.035 26.7031 140.712 26.5273 141.246 26.1758C141.793 25.8242 142.184 25.4271 142.418 24.9844V21.6055H140.504C138.212 21.6055 137.066 22.6341 137.066 24.6914C137.066 25.2904 137.268 25.7786 137.672 26.1562C138.076 26.5208 138.59 26.7031 139.215 26.7031ZM165.465 15.8242L163.297 15.668C161.227 15.668 159.898 16.319 159.312 17.6211V31H152.73V9.86719H158.902L159.117 12.582C160.224 10.5117 161.767 9.47656 163.746 9.47656C164.449 9.47656 165.061 9.55469 165.582 9.71094L165.465 15.8242ZM176.383 26.3125C177.307 26.3125 178.023 26.0651 178.531 25.5703C179.039 25.0625 179.286 24.3594 179.273 23.4609H185.445C185.445 25.7786 184.612 27.6797 182.945 29.1641C181.292 30.6484 179.156 31.3906 176.539 31.3906C173.466 31.3906 171.044 30.4271 169.273 28.5C167.503 26.5729 166.617 23.9036 166.617 20.4922V20.2188C166.617 18.0833 167.008 16.2018 167.789 14.5742C168.583 12.9336 169.723 11.6771 171.207 10.8047C172.691 9.91927 174.449 9.47656 176.48 9.47656C179.228 9.47656 181.409 10.2383 183.023 11.7617C184.638 13.2852 185.445 15.349 185.445 17.9531H179.273C179.273 16.8594 179.007 16.0195 178.473 15.4336C177.939 14.8477 177.223 14.5547 176.324 14.5547C174.618 14.5547 173.622 15.6419 173.336 17.8164C173.245 18.5065 173.199 19.457 173.199 20.668C173.199 22.7904 173.453 24.2617 173.961 25.082C174.469 25.9023 175.276 26.3125 176.383 26.3125ZM194.664 12.1328C196.07 10.362 197.867 9.47656 200.055 9.47656C202.385 9.47656 204.143 10.1667 205.328 11.5469C206.513 12.9271 207.118 14.9648 207.145 17.6602V31H200.543V17.8164C200.543 16.6966 200.315 15.8763 199.859 15.3555C199.404 14.8216 198.629 14.5547 197.535 14.5547C196.181 14.5547 195.224 14.9844 194.664 15.8438V31H188.082V1H194.664V12.1328Z" fill="#3A3A3A"/>
</svg>
